# xmcd CD database file
#
# Track frame offsets:
#	165
#	9912
#	22448
#	36858
#	48577
#	61841
#	70624
#	88847
#	101842
#	114444
#	128904
#	145744
#	157665
#	169221
#	180958
#	198188
#	217282
#	229792
#	242704
#	254794
#	267084
#	278770
#	295280
#	305090
#	319432
#
# Disc length: 4417 seconds
#
# Revision: 0
# Processed by: cddbd v1.5.1PL2 Copyright (c) Steve Scherf et al.
# Submitted via: CDex 1.51
#
DISCID=75113f19
DTITLE=Variable Artist - Aloha Again
DYEAR=1900
DGENRE=Hawaiian
TTITLE0=Sophisticated Hula
TTITLE1=My Little Grass Shack In Kealakekua,Hawaii
TTITLE2=Hawaiian Paradise
TTITLE3=Blue Muumuu
TTITLE4=Hearts Re Never Blue Kalua
TTITLE5=a-Hu-Wa-Hu-Wai
TTITLE6=The Hawaiian Wedding Song
TTITLE7=Beyond The Reef
TTITLE8=Malihini Mele
TTITLE9=On A Little Bamboo Bridge
TTITLE10=On The Beach At Waikiki
TTITLE11=Kaimana Hila
TTITLE12=Me Ka Nani A'o Kaupo
TTITLE13=The Moon Of Manakoora
TTITLE14=Pearly Shells
TTITLE15=To You Sweetheart,Aloha
TTITLE16=On A Tropic Night
TTITLE17=Lovely Hula Hands
TTITLE18=Moonlight Swim
TTITLE19=The Hukilau Song
TTITLE20=Sweet Leilani
TTITLE21=Blue Hawaii
TTITLE22=On Tge Beach At Bali Bali
TTITLE23=Hawaiian Hospitality
TTITLE24=Aloha Oe
EXTD=
EXTT0=
EXTT1=
EXTT2=
EXTT3=
EXTT4=
EXTT5=
EXTT6=
EXTT7=
EXTT8=
EXTT9=
EXTT10=
EXTT11=
EXTT12=
EXTT13=
EXTT14=
EXTT15=
EXTT16=
EXTT17=
EXTT18=
EXTT19=
EXTT20=
EXTT21=
EXTT22=
EXTT23=
EXTT24=
PLAYORDER=
